<svg xmlns="http://www.w3.org/2000/svg" fill="none" viewBox="0 0 24 24" stroke-width="1.5">
  <path stroke-linecap="round" stroke-linejoin="round"
    d="M 2.7 16.9 C 2.3 16.9 2 17.2 2 17.6 C 2 17.9 2.3 18.2 2.7 18.2 V 16.9 Z M 7.5 16.3 L 8.1 16.8 H 8.1 L 7.5 16.3 Z M 16.5 7.7 L 15.9 7.2 L 15.9 7.2 L 16.5 7.7 Z M 21.4 6.4 L 21.8 7 C 22.1 6.7 22.1 6.2 21.8 6 L 21.4 6.4 Z M 21.4 17.6 L 21.8 18 C 22.1 17.8 22.1 17.3 21.8 17 L 21.4 17.6 Z M 2.7 5.8 C 2.3 5.8 2 6.1 2 6.4 C 2 6.8 2.3 7.1 2.7 7.1 V 5.8 Z M 7.5 7.7 L 8.1 7.2 L 7.5 7.7 Z M 16.5 16.3 L 17 15.9 L 16.5 16.3 Z M 9.5 10.5 C 9.8 10.8 10.3 10.8 10.5 10.5 C 10.8 10.3 10.8 9.8 10.5 9.5 L 9.5 10.5 Z M 14.6 13.5 C 14.3 13.2 13.8 13.2 13.6 13.5 C 13.3 13.7 13.3 14.2 13.6 14.5 L 14.6 13.5 Z M 18.9 3.2 C 18.7 2.9 18.3 2.9 17.9 3.2 C 17.6 3.4 17.6 3.9 17.9 4.2 L 18.9 3.2 Z M 17.9 8.8 C 17.6 9 17.6 9.5 17.9 9.7 C 18.3 9.9 18.7 9.9 18.9 9.7 L 17.9 8.8 Z M 18.9 14.3 C 18.7 14.1 18.3 14.1 17.9 14.3 C 17.6 14.5 17.6 15 17.9 15.2 L 18.9 14.3 Z M 17.9 19.8 C 17.6 20.1 17.6 20.6 17.9 20.8 C 18.3 21.1 18.7 21.1 18.9 20.8 L 17.9 19.8 Z M 2.7 18.2 H 4.5 V 16.9 H 2.7 V 18.2 Z M 8.1 16.8 L 17 8.1 L 15.9 7.2 L 7 15.9 L 8.1 16.8 Z M 19.5 7.1 H 21.4 V 5.8 H 19.5 V 7.1 Z M 17 8.1 C 17.6 7.5 18.6 7.1 19.5 7.1 V 5.8 C 18.2 5.8 16.9 6.3 15.9 7.2 L 17 8.1 Z M 4.5 18.2 C 5.8 18.2 7.1 17.7 8.1 16.8 L 7 15.9 C 6.4 16.5 5.5 16.9 4.5 16.9 V 18.2 Z M 21.4 16.9 H 19.5 V 18.2 H 21.4 V 16.9 Z M 4.5 5.8 H 2.7 V 7.1 H 4.5 V 5.8 Z M 8.1 7.2 C 7.1 6.3 5.8 5.8 4.5 5.8 V 7.1 C 5.5 7.1 6.4 7.5 7 8.1 L 8.1 7.2 Z M 19.5 16.9 C 18.6 16.9 17.6 16.5 17 15.9 L 15.9 16.8 C 16.9 17.7 18.2 18.2 19.5 18.2 V 16.9 Z M 10.5 9.5 L 8.1 7.2 L 7 8.1 L 9.5 10.5 L 10.5 9.5 Z M 17 15.9 L 14.6 13.5 L 13.6 14.5 L 15.9 16.8 L 17 15.9 Z M 17.9 4.2 L 20.8 7 L 21.8 6 L 18.9 3.2 L 17.9 4.2 Z M 20.8 6 L 17.9 8.8 L 18.9 9.7 L 21.8 7 L 20.8 6 Z M 17.9 15.2 L 20.8 18 L 21.8 17 L 18.9 14.3 L 17.9 15.2 Z M 20.8 17 L 17.9 19.8 L 18.9 20.8 L 21.8 18 L 20.8 17 Z"
    fill="currentColor"></path>
</svg>